<svg xmlns="http://www.w3.org/2000/svg" width="805" height="600"><rect width="805" height="600" x="0" y="0" fill="#FFFFFF" id="background"/><g transform="translate(10,10)" id="visualization"><g><rect x="0" y="5" height="0.0033095037328507715" width="5" fill="black"><title>Wind: 0.08</title></rect><rect x="0" y="10.00330950373285" height="0.22008199823608265" width="5" fill="black"><title>Hydro: 5.32</title></rect><rect x="780" y="0" height="0.4620894587025077" width="5" fill="black"><title>Agriculture: 11.169999999999998</title></rect><rect x="780" y="5.462089458702508" height="0.5965380478504585" width="5" fill="black"><title>Rail transport: 14.420000000000002</title></rect><rect x="780" y="11.058627506552966" height="0.6114308146484291" width="5" fill="black"><title>Domestic aviation: 14.78</title></rect><rect x="780" y="16.670058321201395" height="0.6676923781072901" width="5" fill="black"><title>District heating: 16.14</title></rect><rect x="0" y="15.223391501968933" height="0.6676923781072901" width="5" fill="black"><title>District heating: 16.14</title></rect><rect x="0" y="20.891083880076224" height="0.7305729490318811" width="5" fill="black"><title>UK land based bioenergy: 17.66</title></rect><rect x="780" y="22.337750699308685" height="0.9303842369041604" width="5" fill="black"><title>National navigation: 22.49</title></rect><rect x="0" y="26.621656829108105" height="1.297739151253122" width="5" fill="black"><title>Coal imports: 31.37</title></rect><rect x="0" y="32.91939598036123" height="1.548020371051706" width="5" fill="black"><title>Agricultural 'waste': 37.42</title></rect><rect x="0" y="39.467416351412936" height="2.2579089217531134" width="5" fill="black"><title>Other waste: 54.580000000000005</title></rect><rect x="0" y="46.72532527316605" height="2.6459482344325664" width="5" fill="black"><title>Coal reserves: 63.96</title></rect><rect x="0" y="54.371273507598616" height="3.401756149427605" width="5" fill="black"><title>Gas reserves: 82.23</title></rect><rect x="780" y="28.268134936212846" height="3.943687385685692" width="5" fill="black"><title>Coal: 95.33</title></rect><rect x="0" y="62.77302965702622" height="3.9441010736522983" width="5" fill="black"><title>Coal: 95.34</title></rect><rect x="780" y="37.21182232189854" height="3.9474105773851704" width="5" fill="black"><title>Bio-conversion: 95.42</title></rect><rect x="0" y="71.71713073067852" height="3.947410577385199" width="5" fill="black"><title>Bio-conversion: 95.42000000000002</title></rect><rect x="780" y="46.15923289928371" height="4.193968605484315" width="5" fill="black"><title>Lighting &amp; appliances - commercial: 101.38</title></rect><rect x="0" y="80.66454130806372" height="4.455419400381288" width="5" fill="black"><title>Oil reserves: 107.7</title></rect><rect x="780" y="55.35320150476802" height="4.609725011926514" width="5" fill="black"><title>Lighting &amp; appliances - homes: 111.43</title></rect><rect x="780" y="64.96292651669454" height="5.357259167589405" width="5" fill="black"><title>International shipping: 129.5</title></rect><rect x="0" y="90.119960708445" height="5.781703021330429" width="5" fill="black"><title>Solid: 139.76</title></rect><rect x="780" y="75.32018568428394" height="5.782116709297071" width="5" fill="black"><title>Solid: 139.77</title></rect><rect x="780" y="86.10230239358101" height="7.152251254706812" width="5" fill="black"><title>Heating and cooling - commercial: 172.89</title></rect><rect x="780" y="98.25455364828782" height="7.801327674316667" width="5" fill="black"><title>International aviation: 188.58</title></rect><rect x="780" y="111.05588132260449" height="13.893710358570615" width="5" fill="black"><title>Road transport: 335.84999999999997</title></rect><rect x="780" y="129.9495916811751" height="23.93557206004283" width="5" fill="black"><title>Heating and cooling - homes: 578.59</title></rect><rect x="0" y="100.90166372977544" height="24.052232066626686" width="5" fill="black"><title>Electricity grid: 581.4100000000001</title></rect><rect x="780" y="158.88516374121792" height="24.053059442559857" width="5" fill="black"><title>Electricity grid: 581.4300000000001</title></rect><rect x="780" y="187.93822318377778" height="27.965306542783253" width="5" fill="black"><title>Losses: 676</title></rect><rect x="0" y="129.95389579640212" height="31.952017476996303" width="5" fill="black"><title>Oil imports: 772.37</title></rect><rect x="780" y="220.90352972656103" height="35.15768553025117" width="5" fill="black"><title>Industry: 849.8599999999999</title></rect><rect x="780" y="261.0612152568122" height="36.40743687737762" width="5" fill="black"><title>Oil: 880.07</title></rect><rect x="0" y="166.90591327339843" height="36.407850565344205" width="5" fill="black"><title>Oil: 880.08</title></rect><rect x="0" y="208.31376383874263" height="36.726803987599965" width="5" fill="black"><title>Liquid: 887.7900000000001</title></rect><rect x="780" y="302.4686521341898" height="36.72804505149975" width="5" fill="black"><title>Liquid: 887.82</title></rect><rect x="780" y="344.1966971856896" height="49.04725900915571" width="5" fill="black"><title>Thermal generation: 1185.61</title></rect><rect x="0" y="250.0405678263426" height="49.04725900915568" width="5" fill="black"><title>Thermal generation: 1185.6100000000001</title></rect><rect x="0" y="304.0878268354983" height="84.15737042324679" width="5" fill="black"><title>Gas imports: 2034.32</title></rect><rect x="780" y="398.2439561948453" height="87.55912657267442" width="5" fill="black"><title>Natural Gas: 2116.5499999999997</title></rect><rect x="0" y="393.24519725874507" height="87.55912657267436" width="5" fill="black"><title>Natural Gas: 2116.55</title></rect><rect x="0" y="485.8043238314194" height="89.19567616858046" width="5" fill="black"><title>Gas: 2156.11</title></rect><rect x="780" y="490.8030827675197" height="89.1969172324803" width="5" fill="black"><title>Gas: 2156.1400000000003</title></rect></g><g fill="none" stroke-opacity="1"><g style="mix-blend-mode: multiply;"><path d="M5,48.04829939038233C392.5,48.04829939038233,392.5,30.88884820468225,780,30.88884820468225" stroke="#9467bd" stroke-width="2.6459482344325695"/><title>Coal reserves → Coal: 63.96</title></g><g style="mix-blend-mode: multiply;"><path d="M5,27.270526404734667C392.5,27.270526404734667,392.5,28.91700451183941,780,28.91700451183941" stroke="#d62728" stroke-width="1.2977391512531224"/><title>Coal imports → Coal: 31.37</title></g><g style="mix-blend-mode: multiply;"><path d="M5,82.89225100825436C392.5,82.89225100825436,392.5,263.28892495700285,780,263.28892495700285" stroke="#cccccc" stroke-width="4.455419400381297"/><title>Oil reserves → Oil: 107.7</title></g><g style="mix-blend-mode: multiply;"><path d="M5,145.9299045349003C392.5,145.9299045349003,392.5,281.49264339569163,780,281.49264339569163" stroke="#cccccc" stroke-width="31.952017476996307"/><title>Oil imports → Oil: 772.37</title></g><g style="mix-blend-mode: multiply;"><path d="M5,56.07215158231242C392.5,56.07215158231242,392.5,399.94483426955907,780,399.94483426955907" stroke="#17becf" stroke-width="3.401756149427614"/><title>Gas reserves → Natural Gas: 82.23</title></g><g style="mix-blend-mode: multiply;"><path d="M5,346.16651204712167C392.5,346.16651204712167,392.5,443.7243975558963,780,443.7243975558963" stroke="#bcbd22" stroke-width="84.15737042324679"/><title>Gas imports → Natural Gas: 2034.32</title></g><g style="mix-blend-mode: multiply;"><path d="M5,21.256370354592164C392.5,21.256370354592164,392.5,37.57710879641448,780,37.57710879641448" stroke="#cccccc" stroke-width="1"/><title>UK land based bioenergy → Bio-conversion: 17.66</title></g><g style="mix-blend-mode: multiply;"><path d="M5,33.69340616588708C392.5,33.69340616588708,392.5,38.71640545645627,780,38.71640545645627" stroke="#1f77b4" stroke-width="1.5480203710517004"/><title>Agricultural 'waste' → Bio-conversion: 37.42</title></g><g style="mix-blend-mode: multiply;"><path d="M5,40.301824980063735C392.5,40.301824980063735,392.5,40.32482427063292,780,40.32482427063292" stroke="#cccccc" stroke-width="1.6688172573015927"/><title>Other waste → Bio-conversion: 40.34</title></g><g style="mix-blend-mode: multiply;"><path d="M5,41.43077944094029C392.5,41.43077944094029,392.5,75.6147315165097,780,75.6147315165097" stroke="#cccccc" stroke-width="1"/><title>Other waste → Solid: 14.24</title></g><g style="mix-blend-mode: multiply;"><path d="M5,64.74508019385237C392.5,64.74508019385237,392.5,77.88132788556162,780,77.88132788556162" stroke="#2ca02c" stroke-width="3.9441010736523014"/><title>Coal → Solid: 95.34</title></g><g style="mix-blend-mode: multiply;"><path d="M5,185.10983855607054C392.5,185.10983855607054,392.5,320.99277190301746,780,320.99277190301746" stroke="#cccccc" stroke-width="36.40785056534421"/><title>Oil → Liquid: 880.08</title></g><g style="mix-blend-mode: multiply;"><path d="M5,437.02476054508224C392.5,437.02476054508224,392.5,536.2204367136628,780,536.2204367136628" stroke="#cccccc" stroke-width="87.55912657267442"/><title>Natural Gas → Gas: 2116.55</title></g><g style="mix-blend-mode: multiply;"><path d="M5,72.34159271627513C392.5,72.34159271627513,392.5,80.47784040798439,780,80.47784040798439" stroke="#ff7f0e" stroke-width="1.2489239711932345"/><title>Bio-conversion → Solid: 30.19</title></g><g style="mix-blend-mode: multiply;"><path d="M5,73.86665340518003C392.5,73.86665340518003,392.5,302.6287493772676,780,302.6287493772676" stroke="#ff7f0e" stroke-width="1"/><title>Bio-conversion → Liquid: 7.74</title></g><g style="mix-blend-mode: multiply;"><path d="M5,74.84564597816073C392.5,74.84564597816073,392.5,491.62197809742264,780,491.62197809742264" stroke="#ff7f0e" stroke-width="1.637790659805901"/><title>Bio-conversion → Gas: 39.59</title></g><g style="mix-blend-mode: multiply;"><path d="M5,73.336305431987C392.5,73.336305431987,392.5,188.30847391389304,780,188.30847391389304" stroke="#ff7f0e" stroke-width="1"/><title>Bio-conversion → Losses: 17.9</title></g><g style="mix-blend-mode: multiply;"><path d="M5,95.22280177656972C392.5,95.22280177656972,392.5,344.8755591388953,780,344.8755591388953" stroke="#cccccc" stroke-width="1.3577239064114592"/><title>Solid → Thermal generation: 32.82</title></g><g style="mix-blend-mode: multiply;"><path d="M5,551.1552324486279C392.5,551.1552324486279,392.5,369.39918864347317,780,369.39918864347317" stroke="#7f7f7f" stroke-width="47.689535102744244"/><title>Gas → Thermal generation: 1152.79</title></g><g style="mix-blend-mode: multiply;"><path d="M5,250.37441401539624C392.5,250.37441401539624,392.5,17.003904510255037,780,17.003904510255037" stroke="#cccccc" stroke-width="1"/><title>Thermal generation → District heating: 16.14</title></g><g style="mix-blend-mode: multiply;"><path d="M5,262.62309417474535C392.5,262.62309417474535,392.5,171.02338921348235,780,171.02338921348235" stroke="#cccccc" stroke-width="23.829667940590884"/><title>Thermal generation → Electricity grid: 576.03</title></g><g style="mix-blend-mode: multiply;"><path d="M5,286.81287749026956C392.5,286.81287749026956,392.5,202.63117869383743,780,202.63117869383743" stroke="#cccccc" stroke-width="24.54989869045754"/><title>Thermal generation → Losses: 593.44</title></g><g style="mix-blend-mode: multiply;"><path d="M5,5.001654751866437C392.5,5.001654751866437,392.5,158.88681849308435,780,158.88681849308435" stroke="#cccccc" stroke-width="1"/><title>Wind → Electricity grid: 0.08</title></g><g style="mix-blend-mode: multiply;"><path d="M5,10.113350502850903C392.5,10.113350502850903,392.5,158.99851424406884,780,158.99851424406884" stroke="#cccccc" stroke-width="1"/><title>Hydro → Electricity grid: 5.32</title></g><g style="mix-blend-mode: multiply;"><path d="M5,114.69050418881065C392.5,114.69050418881065,392.5,189.51747699630846,780,189.51747699630846" stroke="#e377c2" stroke-width="1.677504704600386"/><title>Electricity grid → Losses: 40.55</title></g><g style="mix-blend-mode: multiply;"><path d="M5,15.557237691022573C392.5,15.557237691022573,392.5,221.23737591561468,780,221.23737591561468" stroke="#8c564b" stroke-width="1"/><title>District heating → Industry: 16.14</title></g><g style="mix-blend-mode: multiply;"><path d="M5,112.597243077768C392.5,112.597243077768,392.5,131.20410043991754,780,131.20410043991754" stroke="#e377c2" stroke-width="2.5090175174849176"/><title>Electricity grid → Heating and cooling - homes: 60.65</title></g><g style="mix-blend-mode: multiply;"><path d="M5,503.16473935017535C392.5,503.16473935017535,392.5,143.17188646993898,780,143.17188646993898" stroke="#7f7f7f" stroke-width="21.42655454255793"/><title>Gas → Heating and cooling - homes: 517.94</title></g><g style="mix-blend-mode: multiply;"><path d="M5,110.12049322167859C392.5,110.12049322167859,392.5,86.75199934514079,780,86.75199934514079" stroke="#e377c2" stroke-width="1.2993939031195594"/><title>Electricity grid → Heating and cooling - commercial: 31.41</title></g><g style="mix-blend-mode: multiply;"><path d="M5,489.5250334031027C392.5,489.5250334031027,392.5,90.3281249724942,780,90.3281249724942" stroke="#7f7f7f" stroke-width="5.85285735158724"/><title>Gas → Heating and cooling - commercial: 141.48</title></g><g style="mix-blend-mode: multiply;"><path d="M5,107.33202948274914C392.5,107.33202948274914,392.5,57.49196829213769,780,57.49196829213769" stroke="#e377c2" stroke-width="4.277533574739333"/><title>Electricity grid → Lighting &amp; appliances - homes: 103.4</title></g><g style="mix-blend-mode: multiply;"><path d="M5,486.43250900871556C392.5,486.43250900871556,392.5,59.796830798100956,780,59.796830798100956" stroke="#7f7f7f" stroke-width="1"/><title>Gas → Lighting &amp; appliances - homes: 8.03</title></g><g style="mix-blend-mode: multiply;"><path d="M5,103.28347219752801C392.5,103.28347219752801,392.5,48.06902339713517,780,48.06902339713517" stroke="#e377c2" stroke-width="3.819580995702926"/><title>Electricity grid → Lighting &amp; appliances - commercial: 92.33</title></g><g style="mix-blend-mode: multiply;"><path d="M5,486.07921948523125C392.5,486.07921948523125,392.5,50.166007699877305,780,50.166007699877305" stroke="#7f7f7f" stroke-width="1"/><title>Gas → Lighting &amp; appliances - commercial: 9.05</title></g><g style="mix-blend-mode: multiply;"><path d="M5,120.24157616875647C392.5,120.24157616875647,392.5,230.67070261820473,780,230.67070261820473" stroke="#e377c2" stroke-width="9.424639255291245"/><title>Electricity grid → Industry: 227.82</title></g><g style="mix-blend-mode: multiply;"><path d="M5,92.35035938041861C392.5,92.35035938041861,392.5,223.7648025476137,780,223.7648025476137" stroke="#cccccc" stroke-width="4.387160885890776"/><title>Solid → Industry: 106.05</title></g><g style="mix-blend-mode: multiply;"><path d="M5,240.9189946150149C392.5,240.9189946150149,392.5,239.504595457178,780,239.504595457178" stroke="#cccccc" stroke-width="8.243146422655313"/><title>Liquid → Industry: 199.26</title></g><g style="mix-blend-mode: multiply;"><path d="M5,521.0929416031024C392.5,521.0929416031024,392.5,249.84369196265894,780,249.84369196265894" stroke="#7f7f7f" stroke-width="12.435046588306536"/><title>Gas → Industry: 300.59</title></g><g style="mix-blend-mode: multiply;"><path d="M5,100.99412299031259C392.5,100.99412299031259,392.5,0.12927748956538115,780,0.12927748956538115" stroke="#e377c2" stroke-width="1"/><title>Electricity grid → Agriculture: 4.47</title></g><g style="mix-blend-mode: multiply;"><path d="M5,90.13836982295912C392.5,90.13836982295912,392.5,0.01840911451411028,780,0.01840911451411028" stroke="#cccccc" stroke-width="1"/><title>Solid → Agriculture: 0.89</title></g><g style="mix-blend-mode: multiply;"><path d="M5,208.39008926858205C392.5,208.39008926858205,392.5,0.29806217994194284,780,0.29806217994194284" stroke="#cccccc" stroke-width="1"/><title>Liquid → Agriculture: 3.69</title></g><g style="mix-blend-mode: multiply;"><path d="M5,485.84817475588C392.5,485.84817475588,392.5,0.4182385342419212,780,0.4182385342419212" stroke="#7f7f7f" stroke-width="1"/><title>Gas → Agriculture: 2.12</title></g><g style="mix-blend-mode: multiply;"><path d="M5,111.05646224613196C392.5,111.05646224613196,392.5,111.34215339549807,780,111.34215339549807" stroke="#e377c2" stroke-width="1"/><title>Electricity grid → Road transport: 13.84</title></g><g style="mix-blend-mode: multiply;"><path d="M5,230.13683829729553C392.5,230.13683829729553,392.5,118.2890085747834,780,118.2890085747834" stroke="#cccccc" stroke-width="13.321166212783485"/><title>Liquid → Road transport: 322.01</title></g><g style="mix-blend-mode: multiply;"><path d="M5,101.23013197526316C392.5,101.23013197526316,392.5,5.605639183115907,780,5.605639183115907" stroke="#e377c2" stroke-width="1"/><title>Electricity grid → Rail transport: 6.94</title></g><g style="mix-blend-mode: multiply;"><path d="M5,208.62113399793327C392.5,208.62113399793327,392.5,5.903908207041154,780,5.903908207041154" stroke="#cccccc" stroke-width="1"/><title>Liquid → Rail transport: 7.48</title></g><g style="mix-blend-mode: multiply;"><path d="M5,209.08156870476935C392.5,209.08156870476935,392.5,11.364342913877179,780,11.364342913877179" stroke="#cccccc" stroke-width="1"/><title>Liquid → Domestic aviation: 14.78</title></g><g style="mix-blend-mode: multiply;"><path d="M5,209.85247623054565C392.5,209.85247623054565,392.5,22.80294281776075,780,22.80294281776075" stroke="#cccccc" stroke-width="1"/><title>Liquid → National navigation: 22.49</title></g><g style="mix-blend-mode: multiply;"><path d="M5,219.57559135374544C392.5,219.57559135374544,392.5,102.15521748544616,780,102.15521748544616" stroke="#cccccc" stroke-width="7.801327674316667"/><title>Liquid → International aviation: 188.58</title></g><g style="mix-blend-mode: multiply;"><path d="M5,212.9962979327924C392.5,212.9962979327924,392.5,67.64155610048924,780,67.64155610048924" stroke="#cccccc" stroke-width="5.357259167589396"/><title>Liquid → International shipping: 129.5</title></g><g style="mix-blend-mode: multiply;"><path d="M5,514.3767174652018C392.5,514.3767174652018,392.5,215.40482888281358,780,215.40482888281358" stroke="#7f7f7f" stroke-width="1"/><title>Gas → Losses: 24.11</title></g></g><g><text x="9" y="5.001654751866425" text-anchor="start"><tspan alignment-baseline="middle" x="9" style="font-family: Arial, sans-serif; font-size: 10px; fill: black; font-weight: bold;">Wind</tspan></text><text x="9" y="10.113350502850892" text-anchor="start"><tspan alignment-baseline="middle" x="9" style="font-family: Arial, sans-serif; font-size: 10px; fill: black; font-weight: bold;">Hydro</tspan></text><text x="776" y="0.23104472935125386" text-anchor="end"><tspan alignment-baseline="middle" x="776" style="font-family: Arial, sans-serif; font-size: 10px; fill: black; font-weight: bold;">Agriculture</tspan></text><text x="776" y="5.760358482627737" text-anchor="end"><tspan alignment-baseline="middle" x="776" style="font-family: Arial, sans-serif; font-size: 10px; fill: black; font-weight: bold;">Rail transport</tspan></text><text x="776" y="11.36434291387718" text-anchor="end"><tspan alignment-baseline="middle" x="776" style="font-family: Arial, sans-serif; font-size: 10px; fill: black; font-weight: bold;">Domestic aviation</tspan></text><text x="776" y="17.00390451025504" text-anchor="end"><tspan alignment-baseline="middle" x="776" style="font-family: Arial, sans-serif; font-size: 10px; fill: black; font-weight: bold;">District heating</tspan></text><text x="9" y="15.557237691022578" text-anchor="start"><tspan alignment-baseline="middle" x="9" style="font-family: Arial, sans-serif; font-size: 10px; fill: black; font-weight: bold;">District heating</tspan></text><text x="9" y="21.256370354592164" text-anchor="start"><tspan alignment-baseline="middle" x="9" style="font-family: Arial, sans-serif; font-size: 10px; fill: black; font-weight: bold;">UK land based bioenergy</tspan></text><text x="776" y="22.802942817760766" text-anchor="end"><tspan alignment-baseline="middle" x="776" style="font-family: Arial, sans-serif; font-size: 10px; fill: black; font-weight: bold;">National navigation</tspan></text><text x="9" y="27.270526404734667" text-anchor="start"><tspan alignment-baseline="middle" x="9" style="font-family: Arial, sans-serif; font-size: 10px; fill: black; font-weight: bold;">Coal imports</tspan></text><text x="9" y="33.69340616588708" text-anchor="start"><tspan alignment-baseline="middle" x="9" style="font-family: Arial, sans-serif; font-size: 10px; fill: black; font-weight: bold;">Agricultural 'waste'</tspan></text><text x="9" y="40.59637081228949" text-anchor="start"><tspan alignment-baseline="middle" x="9" style="font-family: Arial, sans-serif; font-size: 10px; fill: black; font-weight: bold;">Other waste</tspan></text><text x="9" y="48.04829939038233" text-anchor="start"><tspan alignment-baseline="middle" x="9" style="font-family: Arial, sans-serif; font-size: 10px; fill: black; font-weight: bold;">Coal reserves</tspan></text><text x="9" y="56.072151582312415" text-anchor="start"><tspan alignment-baseline="middle" x="9" style="font-family: Arial, sans-serif; font-size: 10px; fill: black; font-weight: bold;">Gas reserves</tspan></text><text x="776" y="30.239978629055692" text-anchor="end"><tspan alignment-baseline="middle" x="776" style="font-family: Arial, sans-serif; font-size: 10px; fill: black; font-weight: bold;">Coal</tspan></text><text x="9" y="64.74508019385237" text-anchor="start"><tspan alignment-baseline="middle" x="9" style="font-family: Arial, sans-serif; font-size: 10px; fill: black; font-weight: bold;">Coal</tspan></text><text x="776" y="39.18552761059112" text-anchor="end"><tspan alignment-baseline="middle" x="776" style="font-family: Arial, sans-serif; font-size: 10px; fill: black; font-weight: bold;">Bio-conversion</tspan></text><text x="9" y="73.69083601937112" text-anchor="start"><tspan alignment-baseline="middle" x="9" style="font-family: Arial, sans-serif; font-size: 10px; fill: black; font-weight: bold;">Bio-conversion</tspan></text><text x="776" y="48.256217202025866" text-anchor="end"><tspan alignment-baseline="middle" x="776" style="font-family: Arial, sans-serif; font-size: 10px; fill: black; font-weight: bold;">Lighting &amp; appliances - commercial</tspan></text><text x="9" y="82.89225100825436" text-anchor="start"><tspan alignment-baseline="middle" x="9" style="font-family: Arial, sans-serif; font-size: 10px; fill: black; font-weight: bold;">Oil reserves</tspan></text><text x="776" y="57.65806401073128" text-anchor="end"><tspan alignment-baseline="middle" x="776" style="font-family: Arial, sans-serif; font-size: 10px; fill: black; font-weight: bold;">Lighting &amp; appliances - homes</tspan></text><text x="776" y="67.64155610048924" text-anchor="end"><tspan alignment-baseline="middle" x="776" style="font-family: Arial, sans-serif; font-size: 10px; fill: black; font-weight: bold;">International shipping</tspan></text><text x="9" y="93.01081221911022" text-anchor="start"><tspan alignment-baseline="middle" x="9" style="font-family: Arial, sans-serif; font-size: 10px; fill: black; font-weight: bold;">Solid</tspan></text><text x="776" y="78.21124403893248" text-anchor="end"><tspan alignment-baseline="middle" x="776" style="font-family: Arial, sans-serif; font-size: 10px; fill: black; font-weight: bold;">Solid</tspan></text><text x="776" y="89.67842802093442" text-anchor="end"><tspan alignment-baseline="middle" x="776" style="font-family: Arial, sans-serif; font-size: 10px; fill: black; font-weight: bold;">Heating and cooling - commercial</tspan></text><text x="776" y="102.15521748544616" text-anchor="end"><tspan alignment-baseline="middle" x="776" style="font-family: Arial, sans-serif; font-size: 10px; fill: black; font-weight: bold;">International aviation</tspan></text><text x="776" y="118.0027365018898" text-anchor="end"><tspan alignment-baseline="middle" x="776" style="font-family: Arial, sans-serif; font-size: 10px; fill: black; font-weight: bold;">Road transport</tspan></text><text x="776" y="141.9173777111965" text-anchor="end"><tspan alignment-baseline="middle" x="776" style="font-family: Arial, sans-serif; font-size: 10px; fill: black; font-weight: bold;">Heating and cooling - homes</tspan></text><text x="9" y="112.92777976308878" text-anchor="start"><tspan alignment-baseline="middle" x="9" style="font-family: Arial, sans-serif; font-size: 10px; fill: black; font-weight: bold;">Electricity grid</tspan></text><text x="776" y="170.91169346249785" text-anchor="end"><tspan alignment-baseline="middle" x="776" style="font-family: Arial, sans-serif; font-size: 10px; fill: black; font-weight: bold;">Electricity grid</tspan></text><text x="776" y="201.9208764551694" text-anchor="end"><tspan alignment-baseline="middle" x="776" style="font-family: Arial, sans-serif; font-size: 10px; fill: black; font-weight: bold;">Losses</tspan></text><text x="9" y="145.9299045349003" text-anchor="start"><tspan alignment-baseline="middle" x="9" style="font-family: Arial, sans-serif; font-size: 10px; fill: black; font-weight: bold;">Oil imports</tspan></text><text x="776" y="238.48237249168662" text-anchor="end"><tspan alignment-baseline="middle" x="776" style="font-family: Arial, sans-serif; font-size: 10px; fill: black; font-weight: bold;">Industry</tspan></text><text x="776" y="279.264933695501" text-anchor="end"><tspan alignment-baseline="middle" x="776" style="font-family: Arial, sans-serif; font-size: 10px; fill: black; font-weight: bold;">Oil</tspan></text><text x="9" y="185.10983855607054" text-anchor="start"><tspan alignment-baseline="middle" x="9" style="font-family: Arial, sans-serif; font-size: 10px; fill: black; font-weight: bold;">Oil</tspan></text><text x="9" y="226.6771658325426" text-anchor="start"><tspan alignment-baseline="middle" x="9" style="font-family: Arial, sans-serif; font-size: 10px; fill: black; font-weight: bold;">Liquid</tspan></text><text x="776" y="320.8326746599397" text-anchor="end"><tspan alignment-baseline="middle" x="776" style="font-family: Arial, sans-serif; font-size: 10px; fill: black; font-weight: bold;">Liquid</tspan></text><text x="776" y="368.7203266902674" text-anchor="end"><tspan alignment-baseline="middle" x="776" style="font-family: Arial, sans-serif; font-size: 10px; fill: black; font-weight: bold;">Thermal generation</tspan></text><text x="9" y="274.5641973309204" text-anchor="start"><tspan alignment-baseline="middle" x="9" style="font-family: Arial, sans-serif; font-size: 10px; fill: black; font-weight: bold;">Thermal generation</tspan></text><text x="9" y="346.16651204712167" text-anchor="start"><tspan alignment-baseline="middle" x="9" style="font-family: Arial, sans-serif; font-size: 10px; fill: black; font-weight: bold;">Gas imports</tspan></text><text x="776" y="442.02351948118246" text-anchor="end"><tspan alignment-baseline="middle" x="776" style="font-family: Arial, sans-serif; font-size: 10px; fill: black; font-weight: bold;">Natural Gas</tspan></text><text x="9" y="437.02476054508224" text-anchor="start"><tspan alignment-baseline="middle" x="9" style="font-family: Arial, sans-serif; font-size: 10px; fill: black; font-weight: bold;">Natural Gas</tspan></text><text x="9" y="530.4021619157097" text-anchor="start"><tspan alignment-baseline="middle" x="9" style="font-family: Arial, sans-serif; font-size: 10px; fill: black; font-weight: bold;">Gas</tspan></text><text x="776" y="535.4015413837599" text-anchor="end"><tspan alignment-baseline="middle" x="776" style="font-family: Arial, sans-serif; font-size: 10px; fill: black; font-weight: bold;">Gas</tspan></text></g><g><text x="2.5" y="1" text-anchor="middle" style="font-family: Arial, sans-serif; font-size: 12px; fill: rgb(123, 123, 123); font-weight: bold;">From</text><text x="782.5" y="-4" text-anchor="middle" style="font-family: Arial, sans-serif; font-size: 12px; fill: rgb(123, 123, 123); font-weight: bold;">To</text></g></g></svg>