<svg xmlns="http://www.w3.org/2000/svg" width="871" height="600"><rect width="871" height="600" x="0" y="0" fill="#FFFFFF" id="background"/><g id="viz"><clipPath id="serieClipPath"><rect x="-50" y="-10" width="871" height="600"/></clipPath><g transform="translate(0,0)"><g transform="translate(50,10)" clip-path="url(#serieClipPath)"><g id="axis"><g transform="translate(0,570)" fill="none" font-size="10" font-family="sans-serif" text-anchor="middle"><path class="domain" stroke="currentColor" d="M0.5,6V0.5H806.5V6"/><g class="tick" opacity="1" transform="translate(0.5,0)"><line stroke="currentColor" y2="6"/><text fill="currentColor" y="9" dy="0.71em">5.3</text></g><g class="tick" opacity="1" transform="translate(81.10000000000043,0)"><line stroke="currentColor" y2="6"/><text fill="currentColor" y="9" dy="0.71em">5.4</text></g><g class="tick" opacity="1" transform="translate(161.70000000000013,0)"><line stroke="currentColor" y2="6"/><text fill="currentColor" y="9" dy="0.71em">5.5</text></g><g class="tick" opacity="1" transform="translate(242.29999999999987,0)"><line stroke="currentColor" y2="6"/><text fill="currentColor" y="9" dy="0.71em">5.6</text></g><g class="tick" opacity="1" transform="translate(322.90000000000026,0)"><line stroke="currentColor" y2="6"/><text fill="currentColor" y="9" dy="0.71em">5.7</text></g><g class="tick" opacity="1" transform="translate(403.5,0)"><line stroke="currentColor" y2="6"/><text fill="currentColor" y="9" dy="0.71em">5.8</text></g><g class="tick" opacity="1" transform="translate(484.1000000000004,0)"><line stroke="currentColor" y2="6"/><text fill="currentColor" y="9" dy="0.71em">5.9</text></g><g class="tick" opacity="1" transform="translate(564.7000000000002,0)"><line stroke="currentColor" y2="6"/><text fill="currentColor" y="9" dy="0.71em">6.0</text></g><g class="tick" opacity="1" transform="translate(645.2999999999998,0)"><line stroke="currentColor" y2="6"/><text fill="currentColor" y="9" dy="0.71em">6.1</text></g><g class="tick" opacity="1" transform="translate(725.9000000000003,0)"><line stroke="currentColor" y2="6"/><text fill="currentColor" y="9" dy="0.71em">6.2</text></g><g class="tick" opacity="1" transform="translate(806.5,0)"><line stroke="currentColor" y2="6"/><text fill="currentColor" y="9" dy="0.71em">6.3</text></g><text x="806" dy="-5" text-anchor="end" style="font-family: Arial, sans-serif; font-size: 12px; fill: rgb(123, 123, 123); font-weight: bold;">Tiempo</text></g><g transform="translate(0,0)" fill="none" font-size="10" font-family="sans-serif" text-anchor="end"><path class="domain" stroke="currentColor" d="M0.5,570.5V0.5"/><g class="tick" opacity="1" transform="translate(0,570.5)"><line stroke="currentColor" x2="-6"/><text fill="currentColor" x="-9" dy="0.32em">1.0</text></g><g class="tick" opacity="1" transform="translate(0,532.5)"><line stroke="currentColor" x2="-6"/><text fill="currentColor" x="-9" dy="0.32em">1.2</text></g><g class="tick" opacity="1" transform="translate(0,494.5)"><line stroke="currentColor" x2="-6"/><text fill="currentColor" x="-9" dy="0.32em">1.4</text></g><g class="tick" opacity="1" transform="translate(0,456.49999999999994)"><line stroke="currentColor" x2="-6"/><text fill="currentColor" x="-9" dy="0.32em">1.6</text></g><g class="tick" opacity="1" transform="translate(0,418.50000000000006)"><line stroke="currentColor" x2="-6"/><text fill="currentColor" x="-9" dy="0.32em">1.8</text></g><g class="tick" opacity="1" transform="translate(0,380.50000000000006)"><line stroke="currentColor" x2="-6"/><text fill="currentColor" x="-9" dy="0.32em">2.0</text></g><g class="tick" opacity="1" transform="translate(0,342.49999999999994)"><line stroke="currentColor" x2="-6"/><text fill="currentColor" x="-9" dy="0.32em">2.2</text></g><g class="tick" opacity="1" transform="translate(0,304.50000000000006)"><line stroke="currentColor" x2="-6"/><text fill="currentColor" x="-9" dy="0.32em">2.4</text></g><g class="tick" opacity="1" transform="translate(0,266.5)"><line stroke="currentColor" x2="-6"/><text fill="currentColor" x="-9" dy="0.32em">2.6</text></g><g class="tick" opacity="1" transform="translate(0,228.5)"><line stroke="currentColor" x2="-6"/><text fill="currentColor" x="-9" dy="0.32em">2.8</text></g><g class="tick" opacity="1" transform="translate(0,190.50000000000003)"><line stroke="currentColor" x2="-6"/><text fill="currentColor" x="-9" dy="0.32em">3.0</text></g><g class="tick" opacity="1" transform="translate(0,152.49999999999997)"><line stroke="currentColor" x2="-6"/><text fill="currentColor" x="-9" dy="0.32em">3.2</text></g><g class="tick" opacity="1" transform="translate(0,114.50000000000004)"><line stroke="currentColor" x2="-6"/><text fill="currentColor" x="-9" dy="0.32em">3.4</text></g><g class="tick" opacity="1" transform="translate(0,76.49999999999999)"><line stroke="currentColor" x2="-6"/><text fill="currentColor" x="-9" dy="0.32em">3.6</text></g><g class="tick" opacity="1" transform="translate(0,38.50000000000006)"><line stroke="currentColor" x2="-6"/><text fill="currentColor" x="-9" dy="0.32em">3.8</text></g><g class="tick" opacity="1" transform="translate(0,0.5)"><line stroke="currentColor" x2="-6"/><text fill="currentColor" x="-9" dy="0.32em">4.0</text></g><text x="4" text-anchor="start" dominant-baseline="hanging" style="font-family: Arial, sans-serif; font-size: 12px; fill: rgb(123, 123, 123); font-weight: bold;">KM</text></g></g><g id="viz"><g id="1"><path d="M48.3600000000004,570C338.52000000000027,570,338.52000000000027,190.00000000000003,628.6800000000002,190.00000000000003C644.8000000000002,190.00000000000003,644.8000000000002,0,660.9200000000002,0C721.37,0,721.37,380.00000000000006,781.8199999999998,380.00000000000006" stroke="#9467bd" fill="none"/><g><circle class="dot" cx="48.3600000000004" cy="570" r="6.5" fill="#9467bd"/><circle class="dot" cx="628.6800000000002" cy="190.00000000000003" r="6.5" fill="#9467bd"/><circle class="dot" cx="660.9200000000002" cy="0" r="6.5" fill="#9467bd"/><circle class="dot" cx="781.8199999999998" cy="380.00000000000006" r="6.5" fill="#9467bd"/></g></g><g id="2"><path d="M225.6800000000002,0C394.94000000000017,0,394.94000000000017,380.00000000000006,564.2000000000002,380.00000000000006C568.23,380.00000000000006,568.23,190.00000000000003,572.26,190.00000000000003C592.4099999999999,190.00000000000003,592.4099999999999,570,612.5599999999998,570" stroke="#8c564b" fill="none"/><g><circle class="dot" cx="225.6800000000002" cy="0" r="6.5" fill="#8c564b"/><circle class="dot" cx="564.2000000000002" cy="380.00000000000006" r="6.5" fill="#8c564b"/><circle class="dot" cx="572.26" cy="190.00000000000003" r="6.5" fill="#8c564b"/><circle class="dot" cx="612.5599999999998" cy="570" r="6.5" fill="#8c564b"/></g></g><g id="3"><path d="M80.60000000000043,380.00000000000006C120.90000000000029,380.00000000000006,120.90000000000029,0,161.20000000000013,0C362.70000000000016,0,362.70000000000016,190.00000000000003,564.2000000000002,190.00000000000003C592.4100000000003,190.00000000000003,592.4100000000003,570,620.6200000000003,570" stroke="#1f77b4" fill="none"/><g><circle class="dot" cx="80.60000000000043" cy="380.00000000000006" r="6.5" fill="#1f77b4"/><circle class="dot" cx="161.20000000000013" cy="0" r="6.5" fill="#1f77b4"/><circle class="dot" cx="564.2000000000002" cy="190.00000000000003" r="6.5" fill="#1f77b4"/><circle class="dot" cx="620.6200000000003" cy="570" r="6.5" fill="#1f77b4"/></g></g><g id="4"><path d="M40.299999999999855,190.00000000000003C68.50999999999996,190.00000000000003,68.50999999999996,380.00000000000006,96.72000000000008,380.00000000000006C112.8400000000001,380.00000000000006,112.8400000000001,570,128.96000000000012,570C137.02000000000032,570,137.02000000000032,0,145.0800000000005,0" stroke="#ff7f0e" fill="none"/><g><circle class="dot" cx="40.299999999999855" cy="190.00000000000003" r="6.5" fill="#ff7f0e"/><circle class="dot" cx="96.72000000000008" cy="380.00000000000006" r="6.5" fill="#ff7f0e"/><circle class="dot" cx="128.96000000000012" cy="570" r="6.5" fill="#ff7f0e"/><circle class="dot" cx="145.0800000000005" cy="0" r="6.5" fill="#ff7f0e"/></g></g><g id="5"><path d="M120.90000000000029,190.00000000000003C132.9900000000004,190.00000000000003,132.9900000000004,380.00000000000006,145.0800000000005,380.00000000000006C153.14000000000033,380.00000000000006,153.14000000000033,570,161.20000000000013,570C165.23000000000005,570,165.23000000000005,0,169.25999999999996,0" stroke="#2ca02c" fill="none"/><g><circle class="dot" cx="120.90000000000029" cy="190.00000000000003" r="6.5" fill="#2ca02c"/><circle class="dot" cx="145.0800000000005" cy="380.00000000000006" r="6.5" fill="#2ca02c"/><circle class="dot" cx="161.20000000000013" cy="570" r="6.5" fill="#2ca02c"/><circle class="dot" cx="169.25999999999996" cy="0" r="6.5" fill="#2ca02c"/></g></g><g id="6"><path d="M201.5,190.00000000000003C205.52999999999992,190.00000000000003,205.52999999999992,0,209.55999999999983,0C217.62,0,217.62,380.00000000000006,225.6800000000002,380.00000000000006C398.9700000000001,380.00000000000006,398.9700000000001,570,572.26,570" stroke="#d62728" fill="none"/><g><circle class="dot" cx="201.5" cy="190.00000000000003" r="6.5" fill="#d62728"/><circle class="dot" cx="209.55999999999983" cy="0" r="6.5" fill="#d62728"/><circle class="dot" cx="225.6800000000002" cy="380.00000000000006" r="6.5" fill="#d62728"/><circle class="dot" cx="572.26" cy="570" r="6.5" fill="#d62728"/></g></g></g></g><text y="4" x="4" style="font-family: Arial, sans-serif; font-size: 12px; fill: black; font-weight: bold; dominant-baseline: hanging;"/></g><g id="grid"><rect x="0" y="0" width="871" height="600" fill="none" stroke="#ccc"/></g></g></svg>